<?xml version="1.0" standalone="no"?><!DOCTYPE svg PUBLIC "-//W3C//DTD SVG 1.1//EN" "http://www.w3.org/Graphics/SVG/1.1/DTD/svg11.dtd"><svg t="1497012904115" class="icon" style="" viewBox="0 0 1024 1024" version="1.1" xmlns="http://www.w3.org/2000/svg" p-id="2642" xmlns:xlink="http://www.w3.org/1999/xlink" width="200" height="200"><defs><style type="text/css"></style></defs><path d="M512 64C264.6 64 64 264.6 64 512s200.6 448 448 448 448-200.6 448-448S759.4 64 512 64z m356.6 305l-123 37.8c-12.6-28-30.2-53.6-52.6-76-22.4-22.4-48-40-76-52.6l37.8-123c47.6 19 91.2 47.8 128.6 85 37.4 37.6 66.2 81.2 85.2 128.8zM512 704c-106 0-192-86-192-192s86-192 192-192 192 86 192 192-86 192-192 192zM240.4 240.4c37.4-37.4 81-66 128.6-85l37.8 123c-28 12.6-53.6 30.2-76 52.6-22.4 22.4-40 48-52.6 76l-123-37.8c19.2-47.8 48-91.4 85.2-128.8zM155.4 655l123-37.8c12.6 28 30.2 53.6 52.6 76s48 40 76 52.6l-37.8 123c-47.6-19-91.2-47.8-128.6-85-37.4-37.6-66.2-81.2-85.2-128.8z m628.2 128.6c-37.4 37.4-81 66-128.6 85l-37.8-123c28-12.6 53.6-30.2 76-52.6s40-48 52.6-76l123 37.8c-19.2 47.8-48 91.4-85.2 128.8z" p-id="2643"></path></svg>