<?xml version="1.0" standalone="no"?><!DOCTYPE svg PUBLIC "-//W3C//DTD SVG 1.1//EN" "http://www.w3.org/Graphics/SVG/1.1/DTD/svg11.dtd"><svg t="1496751367955" class="icon" style="" viewBox="0 0 1024 1024" version="1.1" xmlns="http://www.w3.org/2000/svg" p-id="2343" xmlns:xlink="http://www.w3.org/1999/xlink" width="200" height="200"><defs><style type="text/css"></style></defs><path d="M693.193747 347.32138c11.747555 0 23.370267 0.860601 34.898835 2.145873C696.733363 203.446575 540.624933 94.955652 362.427415 94.955652c-199.217251 0-362.40696 135.793756-362.40696 308.224943 0 99.529831 54.29151 181.26539 145.018861 244.659209l-36.246529 109.023042 126.692471-63.535035c45.332465 8.975419 81.70486 18.202571 126.943181 18.202571 11.373025 0 22.650883-0.563842 33.835619-1.441838-7.080256-24.231891-11.184737-49.608861-11.184737-75.939553C385.078297 475.815893 521.043969 347.32138 693.193747 347.32138zM498.330664 249.059426c27.28646 0 45.363164 17.950837 45.363164 45.222971 0 27.161616-18.076704 45.363164-45.363164 45.363164-27.161616 0-54.417377-18.201547-54.417377-45.363164C443.913287 267.011286 471.169048 249.059426 498.330664 249.059426zM244.696036 339.64556c-27.160593 0-54.573943-18.201547-54.573943-45.363164 0-27.27111 27.41335-45.222971 54.573943-45.222971 27.161616 0 45.23832 17.950837 45.23832 45.222971C289.934357 321.444013 271.857653 339.64556 244.696036 339.64556z" p-id="2344"></path><path d="M1023.960079 629.7938c0-144.894018-144.988162-263.001973-307.833017-263.001973-172.432211 0-308.241316 118.107955-308.241316 263.001973 0 145.145751 135.809105 263.002996 308.241316 263.002996 36.089963 0 72.494081-9.102309 108.741633-18.185174l99.404987 54.431703-27.255761-90.569762C969.76169 783.898597 1023.960079 711.530382 1023.960079 629.7938zM616.189956 584.445986c-18.047028 0-36.247552-17.949814-36.247552-36.262902 0-18.060331 18.200524-36.247552 36.247552-36.247552 27.41028 0 45.361117 18.186198 45.361117 36.247552C661.551073 566.496172 643.600235 584.445986 616.189956 584.445986zM815.53205 584.445986c-17.920138 0-35.997865-17.949814-35.997865-36.262902 0-18.060331 18.077727-36.247552 35.997865-36.247552 27.161616 0 45.363164 18.186198 45.363164 36.247552C860.895213 566.496172 842.693666 584.445986 815.53205 584.445986z" p-id="2345"></path></svg>