<?xml version="1.0" standalone="no"?><!DOCTYPE svg PUBLIC "-//W3C//DTD SVG 1.1//EN" "http://www.w3.org/Graphics/SVG/1.1/DTD/svg11.dtd"><svg t="1496751125019" class="icon" style="" viewBox="0 0 1024 1024" version="1.1" xmlns="http://www.w3.org/2000/svg" p-id="1011" xmlns:xlink="http://www.w3.org/1999/xlink" width="200" height="200"><defs><style type="text/css"></style></defs><path d="M877.755392 1015.994368 146.244608 1015.994368c-52.74112-0.284672-95.27808-43.24864-95.039488-95.988736L51.20512 478.391296c-0.238592-52.740096 42.298368-95.704064 95.039488-95.988736l106.559488 0L252.804096 267.203584c0-143.15008 116.045824-259.196928 259.196928-259.196928 143.15008 0 259.195904 116.046848 259.195904 259.196928L771.196928 382.40256l106.559488 0c52.74112 0.284672 95.27808 43.24864 95.039488 95.988736l0 441.614336C973.033472 972.745728 930.496512 1015.709696 877.755392 1015.994368zM655.998976 270.083072c0-79.526912-64.470016-143.997952-143.997952-143.997952s-143.998976 64.47104-143.998976 143.997952L368.002048 382.40256l287.996928 0L655.998976 270.083072z" p-id="1012"></path></svg>