<?xml version="1.0" standalone="no"?><!DOCTYPE svg PUBLIC "-//W3C//DTD SVG 1.1//EN" "http://www.w3.org/Graphics/SVG/1.1/DTD/svg11.dtd"><svg t="1497013798646" class="icon" style="" viewBox="0 0 1024 1024" version="1.1" xmlns="http://www.w3.org/2000/svg" p-id="3299" xmlns:xlink="http://www.w3.org/1999/xlink" width="200" height="200"><defs><style type="text/css"></style></defs><path d="M942 522.8 942 522.8C942 522.8 942 522.8 942 522.8L521.8 99.6c0 0 0 0 0 0l-3-3c0 0-0.8 0-0.8 0-16.6-15.8-35.8-24-59.8-24.6l0 0-199.4-7.4-8.8-0.4c-22.4 0.4-44.4 9-61.4 26.2L90.2 188.6c-18 18-26.2 41.8-26.2 65.4 0 0 0 0 0 0.2l0.6 8.4 13.4 194.6c0 0.2 0 0.4 0 0.4l0 3.8c0 0 0 0 0 0 2 17.4 9 34.6 20.8 48.8l11 10.8 412.6 417.6 6.2 6.2c23.8 21 60 20 82.6-2.8l330.8-333.2C965.6 585.2 966 546.6 942 522.8zM288 384c-53 0-96-43-96-96s43-96 96-96 96 43 96 96S341 384 288 384z" p-id="3300"></path></svg>